<?xml version="1.0" standalone="no"?><!DOCTYPE svg PUBLIC "-//W3C//DTD SVG 1.1//EN" "http://www.w3.org/Graphics/SVG/1.1/DTD/svg11.dtd"><svg t="1711366730039" class="icon" viewBox="0 0 2355 1024" version="1.1" xmlns="http://www.w3.org/2000/svg" p-id="6822" xmlns:xlink="http://www.w3.org/1999/xlink" width="73.59375" height="32"><path d="M51.2 0h2252.8a51.2 51.2 0 0 1 51.2 51.2v921.6a51.2 51.2 0 0 1-51.2 51.2H51.2a51.2 51.2 0 0 1-51.2-51.2V51.2a51.2 51.2 0 0 1 51.2-51.2z m412.672 314.88h71.168c-1.024-17.0496-5.12-31.8464-12.288-44.288a100.0448 100.0448 0 0 0-27.904-31.232 120.9344 120.9344 0 0 0-38.912-18.688 165.9392 165.9392 0 0 0-45.312-6.144c-21.504 0-40.6016 3.584-57.344 10.752-16.7424 7.168-30.8736 17.152-42.496 29.952-11.6224 12.8-20.3776 28.0064-26.368 45.568A176.3328 176.3328 0 0 0 275.456 357.888c0 19.8144 3.2256 37.9904 9.728 54.528 6.5024 16.5376 15.5136 30.8224 27.136 42.752 11.6224 11.9296 25.7024 21.248 42.24 27.904 16.5376 6.656 34.7136 9.984 54.528 9.984 35.1744 0 64-9.216 86.528-27.648 22.528-18.432 36.1984-45.2096 40.96-80.384H466.432c-2.4064 16.384-8.2944 29.44-17.664 39.168-9.3696 9.728-22.784 14.592-40.192 14.592-11.264 0-20.8384-2.56-28.672-7.68a57.344 57.344 0 0 1-18.688-19.712 90.2656 90.2656 0 0 1-9.984-26.88 143.8208 143.8208 0 0 1 0-59.136c2.048-10.0864 5.5296-19.3024 10.496-27.648 4.9664-8.3456 11.3664-15.2064 19.2-20.48a51.0464 51.0464 0 0 1 29.184-7.936c31.0784 0 48.9984 15.2064 53.76 45.568z m178.176 39.424c0-10.5984 1.024-20.992 3.072-31.232 2.048-10.24 5.5296-19.3024 10.496-27.136 4.9664-7.8336 11.52-14.2336 19.712-19.2 8.192-4.9664 18.432-7.424 30.72-7.424s22.6304 2.4576 30.976 7.424c8.3456 4.9664 15.0016 11.3664 19.968 19.2 4.9664 7.8336 8.448 16.896 10.496 27.136a158.8736 158.8736 0 0 1 0 62.208c-2.048 10.0864-5.5296 19.0976-10.496 27.136a55.296 55.296 0 0 1-19.968 19.2c-8.3456 4.7616-18.688 7.168-30.976 7.168s-22.528-2.4064-30.72-7.168a55.9104 55.9104 0 0 1-19.712-19.2 82.5344 82.5344 0 0 1-10.496-27.136 155.0336 155.0336 0 0 1-3.072-30.976z m-72.704 0c0 21.1456 3.2256 40.2944 9.728 57.344 6.5024 17.0496 15.7184 31.6416 27.648 43.776 11.9296 12.1344 26.2656 21.4016 43.008 27.904 16.7424 6.5024 35.4816 9.728 56.32 9.728 20.8384 0 39.68-3.2256 56.576-9.728 16.896-6.5024 31.3344-15.7696 43.264-27.904a124.416 124.416 0 0 0 27.648-43.776c6.5024-17.0496 9.728-36.1984 9.728-57.344 0-21.1456-3.2256-40.3456-9.728-57.6a123.9552 123.9552 0 0 0-27.648-44.032 123.392 123.392 0 0 0-43.264-28.16 153.1904 153.1904 0 0 0-56.576-9.984c-20.8384 0-39.5776 3.328-56.32 9.984a123.904 123.904 0 0 0-43.008 28.16 123.9552 123.9552 0 0 0-27.648 44.032c-6.5024 17.2544-9.728 36.4544-9.728 57.6z m323.072-132.608V486.4h72.704v-153.6c0-12.9536 1.8944-23.4496 5.632-31.488a50.8416 50.8416 0 0 1 13.568-18.432 45.056 45.056 0 0 1 16.384-8.704c5.632-1.536 10.1376-2.304 13.568-2.304 11.6224 0 20.3776 1.9456 26.368 5.888 5.9904 3.9424 10.24 9.1136 12.8 15.616 2.56 6.5024 3.9936 13.568 4.352 21.248 0.3584 7.68 0.512 15.4624 0.512 23.296v148.48h72.704V338.944c0-8.192 0.6144-16.2816 1.792-24.32 1.1776-8.0384 3.584-15.2064 7.168-21.504a42.6496 42.6496 0 0 1 14.848-15.36 46.4896 46.4896 0 0 1 24.832-5.888c10.24 0 18.3296 1.6896 24.32 5.12a34.0992 34.0992 0 0 1 13.568 13.824c3.072 5.7856 4.9664 12.6464 5.632 20.48 0.6656 7.8336 1.024 16.2304 1.024 25.088V486.4h72.704V309.248c0-17.0496-2.4064-31.6416-7.168-43.776a75.0592 75.0592 0 0 0-19.968-29.44 78.336 78.336 0 0 0-30.72-16.384 141.1584 141.1584 0 0 0-38.912-5.12c-18.432 0-34.4064 4.4544-47.872 13.312a112.64 112.64 0 0 0-32 30.72c-7.168-16.384-17.664-27.8016-31.488-34.304a106.5472 106.5472 0 0 0-45.824-9.728c-17.408 0-32.8704 3.7376-46.336 11.264a103.5264 103.5264 0 0 0-34.56 31.744h-1.024v-35.84h-68.608z m536.576-40.96V120.832h-72.704v59.904h72.704z m-72.704 40.96V486.4h72.704V221.696h-72.704z m130.048 0V486.4h72.704V347.648c0-26.9824 4.4544-46.336 13.312-58.112 8.8576-11.776 23.1936-17.664 43.008-17.664 17.408 0 29.5424 5.376 36.352 16.128 6.8096 10.752 10.24 27.0336 10.24 48.896V486.4h72.704V323.584c0-16.384-1.4336-31.3344-4.352-44.8a85.1968 85.1968 0 0 0-15.104-34.304 70.9632 70.9632 0 0 0-29.44-22.016c-12.4416-5.2736-28.416-7.936-47.872-7.936-15.36 0-30.3616 3.4816-45.056 10.496a83.456 83.456 0 0 0-35.84 33.536h-1.536v-36.864h-69.12z m427.008 202.24c-11.264 0-20.6336-2.4064-28.16-7.168a56.832 56.832 0 0 1-18.176-18.432 76.8 76.8 0 0 1-9.728-25.344 144.5376 144.5376 0 0 1-2.816-28.416c0-9.8816 1.1264-19.3536 3.328-28.416a70.144 70.144 0 0 1 10.752-24.064c4.9664-7.0144 11.1104-12.544 18.432-16.64 7.3216-4.096 16.128-6.144 26.368-6.144 11.9296 0 21.8624 2.2016 29.696 6.656 7.8336 4.4544 14.1824 10.3936 18.944 17.92 4.7616 7.5264 8.192 16.128 10.24 25.856 2.048 9.728 3.072 20.0704 3.072 30.976 0 9.5744-1.28 18.688-3.84 27.392-2.56 8.704-6.4 16.4864-11.52 23.296s-11.6224 12.288-19.456 16.384c-7.8336 4.096-16.896 6.144-27.136 6.144z m131.072 45.568V221.696h-69.12v35.328h-1.024c-8.8576-15.36-19.8656-26.2656-33.024-32.768a102.3488 102.3488 0 0 0-45.824-9.728c-18.432 0-34.7136 3.584-48.896 10.752-14.1824 7.168-26.0096 16.7936-35.584 28.928-9.5744 12.1344-16.7936 26.112-21.76 41.984-4.9664 15.872-7.424 32.3584-7.424 49.408 0 18.0736 2.1504 35.2256 6.4 51.456 4.2496 16.2304 11.008 30.3616 20.224 42.496 9.216 12.1344 20.992 21.6576 35.328 28.672 14.336 7.0144 31.3856 10.496 51.2 10.496 16.0256 0 31.3344-3.328 45.824-9.984 14.4896-6.656 25.7024-16.9984 33.536-30.976h1.024v34.816c0.3584 18.7904-4.1984 34.304-13.568 46.592s-24.32 18.432-44.8 18.432a71.68 71.68 0 0 1-34.304-7.936c-9.8816-5.2736-16.5376-14.7456-19.968-28.416h-72.192c1.024 15.0016 5.2224 27.904 12.544 38.656 7.3216 10.752 16.5376 19.5584 27.648 26.368 11.1104 6.8096 23.3984 11.8784 36.864 15.104 13.4656 3.2256 26.7264 4.864 39.68 4.864 30.3616 0 54.6304-4.096 72.704-12.288 18.0736-8.192 31.8976-18.176 41.472-29.952a89.6 89.6 0 0 0 18.688-38.144c2.9184-13.6704 4.352-25.7536 4.352-36.352zM339.968 784.384H270.848c0.6656 17.7664 4.7104 32.512 12.032 44.288 7.3216 11.776 16.7424 21.248 28.16 28.416 11.4176 7.168 24.4736 12.288 39.168 15.36a225.28 225.28 0 0 0 89.344 0.256c14.4896-2.9184 27.392-7.936 38.656-15.104 11.264-7.168 20.3776-16.64 27.392-28.416 7.0144-11.776 10.496-26.368 10.496-43.776 0-12.288-2.4064-22.6304-7.168-30.976a65.6384 65.6384 0 0 0-18.944-20.992 101.888 101.888 0 0 0-26.88-13.568 307.1488 307.1488 0 0 0-30.976-8.704c-10.24-2.4064-20.3264-4.608-30.208-6.656a233.6256 233.6256 0 0 1-26.368-6.912 55.296 55.296 0 0 1-18.688-9.984 19.968 19.968 0 0 1-7.168-15.872c0-5.4784 1.3824-9.8304 4.096-13.056a26.88 26.88 0 0 1 9.984-7.424 44.4416 44.4416 0 0 1 13.056-3.328c4.7616-0.512 9.216-0.768 13.312-0.768 12.9536 0 24.2176 2.4576 33.792 7.424 9.5744 4.9664 14.848 14.4384 15.872 28.416h69.12c-1.3824-16.384-5.5296-29.952-12.544-40.704a82.8416 82.8416 0 0 0-26.368-25.856 110.3872 110.3872 0 0 0-36.096-13.824 209.7152 209.7152 0 0 0-41.728-4.096c-14.336 0-28.3136 1.28-41.984 3.84-13.6704 2.56-25.9584 7.0144-36.864 13.312a73.5744 73.5744 0 0 0-26.368 25.856c-6.656 10.9056-9.984 24.9344-9.984 41.984 0 11.6224 2.4064 21.4016 7.168 29.44 4.7616 8.0384 11.1104 14.6944 18.944 19.968 7.8336 5.2736 16.7936 9.5744 26.88 12.8s20.3776 6.0416 30.976 8.448c25.9584 5.4784 46.1824 10.9056 60.672 16.384 14.4896 5.4784 21.76 13.6704 21.76 24.576 0 6.5024-1.536 11.8784-4.608 16.128a34.9184 34.9184 0 0 1-11.52 10.24c-4.608 2.56-9.728 4.4544-15.36 5.632a77.7728 77.7728 0 0 1-36.864-0.768 53.76 53.76 0 0 1-17.664-7.936 39.8848 39.8848 0 0 1-17.408-34.048z m283.136-46.08c0-10.5984 1.024-20.992 3.072-31.232 2.048-10.24 5.5296-19.3024 10.496-27.136 4.9664-7.8336 11.52-14.2336 19.712-19.2 8.192-4.9664 18.432-7.424 30.72-7.424s22.6304 2.4576 30.976 7.424c8.3456 4.9664 15.0016 11.3664 19.968 19.2 4.9664 7.8336 8.448 16.896 10.496 27.136a158.8736 158.8736 0 0 1 0 62.208c-2.048 10.0864-5.5296 19.0976-10.496 27.136a55.296 55.296 0 0 1-19.968 19.2c-8.3456 4.7616-18.688 7.168-30.976 7.168s-22.528-2.4064-30.72-7.168a55.9104 55.9104 0 0 1-19.712-19.2 82.5344 82.5344 0 0 1-10.496-27.136 155.0336 155.0336 0 0 1-3.072-30.976z m-72.704 0c0 21.1456 3.2256 40.2944 9.728 57.344 6.5024 17.0496 15.7184 31.6416 27.648 43.776 11.9296 12.1344 26.2656 21.4016 43.008 27.904 16.7424 6.5024 35.4816 9.728 56.32 9.728 20.8384 0 39.68-3.2256 56.576-9.728 16.896-6.5024 31.3344-15.7696 43.264-27.904a124.416 124.416 0 0 0 27.648-43.776c6.5024-17.0496 9.728-36.1984 9.728-57.344 0-21.1456-3.2256-40.3456-9.728-57.6a123.9552 123.9552 0 0 0-27.648-44.032 123.392 123.392 0 0 0-43.264-28.16 153.1904 153.1904 0 0 0-56.576-9.984c-20.8384 0-39.5776 3.328-56.32 9.984a123.904 123.904 0 0 0-43.008 28.16 123.9552 123.9552 0 0 0-27.648 44.032c-6.5024 17.2544-9.728 36.4544-9.728 57.6z m385.536 0c0-10.5984 1.024-20.992 3.072-31.232 2.048-10.24 5.5296-19.3024 10.496-27.136 4.9664-7.8336 11.52-14.2336 19.712-19.2 8.192-4.9664 18.432-7.424 30.72-7.424s22.6304 2.4576 30.976 7.424c8.3456 4.9664 15.0016 11.3664 19.968 19.2 4.9664 7.8336 8.448 16.896 10.496 27.136a158.8736 158.8736 0 0 1 0 62.208c-2.048 10.0864-5.5296 19.0976-10.496 27.136a55.296 55.296 0 0 1-19.968 19.2c-8.3456 4.7616-18.688 7.168-30.976 7.168s-22.528-2.4064-30.72-7.168a55.9104 55.9104 0 0 1-19.712-19.2 82.5344 82.5344 0 0 1-10.496-27.136 155.0336 155.0336 0 0 1-3.072-30.976z m-72.704 0c0 21.1456 3.2256 40.2944 9.728 57.344 6.5024 17.0496 15.7184 31.6416 27.648 43.776 11.9296 12.1344 26.2656 21.4016 43.008 27.904 16.7424 6.5024 35.4816 9.728 56.32 9.728 20.8384 0 39.68-3.2256 56.576-9.728 16.896-6.5024 31.3344-15.7696 43.264-27.904a124.416 124.416 0 0 0 27.648-43.776c6.5024-17.0496 9.728-36.1984 9.728-57.344 0-21.1456-3.2256-40.3456-9.728-57.6a123.9552 123.9552 0 0 0-27.648-44.032 123.392 123.392 0 0 0-43.264-28.16 153.1904 153.1904 0 0 0-56.576-9.984c-20.8384 0-39.5776 3.328-56.32 9.984a123.904 123.904 0 0 0-43.008 28.16 123.9552 123.9552 0 0 0-27.648 44.032c-6.5024 17.2544-9.728 36.4544-9.728 57.6z m321.024-132.608V870.4h72.704v-138.752c0-26.9824 4.4544-46.336 13.312-58.112 8.8576-11.776 23.1936-17.664 43.008-17.664 17.408 0 29.5424 5.376 36.352 16.128 6.8096 10.752 10.24 27.0336 10.24 48.896V870.4h72.704v-162.816c0-16.384-1.4336-31.3344-4.352-44.8a85.1968 85.1968 0 0 0-15.104-34.304 70.9632 70.9632 0 0 0-29.44-22.016c-12.4416-5.2736-28.416-7.936-47.872-7.936-15.36 0-30.3616 3.4816-45.056 10.496a83.456 83.456 0 0 0-35.84 33.536h-1.536v-36.864h-69.12z" fill="#FFAB00" p-id="6823"></path></svg>