<?xml version="1.0" standalone="no"?><!DOCTYPE svg PUBLIC "-//W3C//DTD SVG 1.1//EN" "http://www.w3.org/Graphics/SVG/1.1/DTD/svg11.dtd"><svg t="1711366887960" class="icon" viewBox="0 0 1024 1024" version="1.1" xmlns="http://www.w3.org/2000/svg" p-id="10447" xmlns:xlink="http://www.w3.org/1999/xlink" width="32" height="32"><path d="M704 874.666667c-116.906667 64.064-213.333333 64-341.333333 21.333333-129.621333-43.221333-213.333333-192-213.333334-298.666667 0-58.538667 87.765333-93.269333 117.952-103.466666a14.656 14.656 0 0 0 10.048-13.824V320a74.666667 74.666667 0 1 1 149.333334 0v-53.333333a74.666667 74.666667 0 1 1 149.333333 0V320a74.666667 74.666667 0 1 1 149.333333 0V160a74.666667 74.666667 0 0 1 149.333334 0v442.282667c0 52.736-12.629333 105.130667-43.477334 147.925333C799.829333 793.706667 754.282667 847.104 704 874.666667z" fill="#1aaba8" p-id="10448"></path></svg>