<?xml version="1.0" standalone="no"?><!DOCTYPE svg PUBLIC "-//W3C//DTD SVG 1.1//EN" "http://www.w3.org/Graphics/SVG/1.1/DTD/svg11.dtd"><svg t="1711368735090" class="icon" viewBox="0 0 1024 1024" version="1.1" xmlns="http://www.w3.org/2000/svg" p-id="18140" xmlns:xlink="http://www.w3.org/1999/xlink" width="32" height="32"><path d="M896 341.333333V170.666667H682.666667V85.333333h298.666666v256h-85.333333zM682.666667 853.333333h213.333333v-170.666666h85.333333v256H682.666667v-85.333334zM128 682.666667v170.666666h213.333333v85.333334H42.666667V682.666667h85.333333zM341.333333 170.666667H128v170.666666H42.666667V85.333333h298.666666v85.333334z m170.666667 554.666666c-117.824 0-213.333333-95.509333-213.333333-213.333333s95.509333-213.333333 213.333333-213.333333 213.333333 95.509333 213.333333 213.333333-95.509333 213.333333-213.333333 213.333333z m0-85.333333a128 128 0 1 0 0-256 128 128 0 0 0 0 256z" fill="#707070" p-id="18141"></path></svg>