<?xml version="1.0" standalone="no"?><!DOCTYPE svg PUBLIC "-//W3C//DTD SVG 1.1//EN" "http://www.w3.org/Graphics/SVG/1.1/DTD/svg11.dtd"><svg t="1711367186783" class="icon" viewBox="0 0 1024 1024" version="1.1" xmlns="http://www.w3.org/2000/svg" p-id="15374" xmlns:xlink="http://www.w3.org/1999/xlink" width="32" height="32"><path d="M919.296 418.88V337.472c0-44.8-36.672-81.472-81.472-81.472H145.472C100.672 256 64 292.672 64 337.472v325.76c0 44.8 36.672 81.472 81.472 81.472H837.76c44.8 0 81.472-36.672 81.472-81.472V581.824c22.4 0 40.704-18.368 40.704-40.768V459.648a40.832 40.832 0 0 0-40.704-40.768z m-40.768 40.768v203.648c0 22.4-18.304 40.704-40.704 40.704H145.472a40.832 40.832 0 0 1-40.768-40.768v-325.76c0-22.4 18.368-40.768 40.768-40.768H837.76c22.4 0 40.704 18.368 40.704 40.768v122.176zM145.472 663.232h691.2v-325.76h-691.2v325.76z" fill="#52C41A" p-id="15375"></path></svg>